<svg width="145" height="68" viewBox="0 0 145 68" fill="none" xmlns="http://www.w3.org/2000/svg">
<path d="M75.8355 48.9089C76.1389 47.697 77.8611 47.697 78.1645 48.9089L78.2539 49.2661C78.4825 50.1797 79.6262 50.4862 80.2811 49.8093L80.5371 49.5447C81.4057 48.6468 82.8973 49.5079 82.554 50.7091L82.4528 51.0632C82.1941 51.9687 83.0313 52.8059 83.9368 52.5472L84.2909 52.446C85.4921 52.1027 86.3532 53.5943 85.4553 54.4629L85.1907 54.7189C84.5138 55.3738 84.8203 56.5175 85.7339 56.7461L86.0911 56.8355C87.303 57.1389 87.303 58.8611 86.0911 59.1645L85.7339 59.2539C84.8203 59.4825 84.5138 60.6262 85.1907 61.2811L85.4553 61.5371C86.3532 62.4057 85.4921 63.8973 84.2909 63.554L83.9368 63.4528C83.0313 63.1941 82.1941 64.0313 82.4528 64.9368L82.554 65.2909C82.8973 66.4921 81.4057 67.3532 80.5371 66.4553L80.2811 66.1907C79.6262 65.5138 78.4825 65.8203 78.2539 66.7339L78.1645 67.0911C77.8611 68.303 76.1389 68.303 75.8355 67.0911L75.7461 66.7339C75.5175 65.8203 74.3738 65.5138 73.7189 66.1907L73.4629 66.4553C72.5943 67.3532 71.1027 66.4921 71.446 65.2909L71.5472 64.9368C71.8059 64.0313 70.9687 63.1941 70.0632 63.4528L69.7091 63.554C68.5079 63.8973 67.6468 62.4057 68.5447 61.5371L68.8093 61.2811C69.4862 60.6262 69.1797 59.4825 68.2661 59.2539L67.9089 59.1645C66.697 58.8611 66.697 57.1389 67.9089 56.8355L68.2661 56.7461C69.1797 56.5175 69.4862 55.3738 68.8093 54.7189L68.5447 54.4629C67.6468 53.5943 68.5079 52.1027 69.7091 52.446L70.0632 52.5472C70.9687 52.8059 71.8059 51.9687 71.5472 51.0632L71.446 50.7091C71.1027 49.5079 72.5943 48.6468 73.4629 49.5447L73.7189 49.8093C74.3738 50.4862 75.5175 50.1797 75.7461 49.2661L75.8355 48.9089ZM83.2162 58.6247H77.3124L73.7698 63.3482C74.7123 63.9187 75.8178 64.2471 77 64.2471C80.2393 64.2471 82.9028 61.7816 83.2162 58.6247ZM83.2162 57.3753C82.9028 54.2185 80.2393 51.753 77 51.753C75.8178 51.753 74.7123 52.0813 73.7698 52.6519L77.3124 57.3753H83.2162ZM73.3099 52.9588C73.2734 52.9855 73.2372 53.0127 73.2013 53.0402L73.3099 52.9588ZM72.7708 53.4022C71.5302 54.5439 70.7529 56.1812 70.7529 58C70.7529 59.8189 71.5302 61.4562 72.7708 62.5978L76.2191 58L72.7708 53.4022ZM73.2013 62.9598C73.2372 62.9874 73.2734 63.0145 73.3099 63.0413L73.2013 62.9598Z" fill="white"/>
<path d="M15.2 43H6.72C4.8 41.24 3.4 39.1467 2.52 36.72C1.64 34.2933 1.2 31.76 1.2 29.12C1.2 26.4533 1.73333 23.8267 2.8 21.24C3.86667 18.6533 5.36 16.5733 7.28 15H17V19.8H9.56C8.86667 20.6 8.26667 21.8667 7.76 23.6C7.25333 25.3067 7 27.1333 7 29.08C7 31 7.22667 32.84 7.68 34.6C8.16 36.3333 8.74667 37.5867 9.44 38.36H13.28V27.48H18.56V34.2C18.56 37.88 17.44 40.8133 15.2 43ZM33.6056 43L32.7656 38.56H26.4456L25.6056 43H20.1656L25.5656 15H33.8456L38.9656 43H33.6056ZM29.5256 20.2L27.9656 29.52L27.0856 34.28H32.0856L31.1656 29.52L29.6056 20.2H29.5256ZM41.295 15H51.935C53.615 15.56 55.0417 16.6 56.215 18.12C57.415 19.6133 58.015 21.4533 58.015 23.64C58.015 27.2133 56.6017 29.84 53.775 31.52L57.815 43H52.215L48.815 32.8H46.695V43H41.295V15ZM46.695 19.8V28.32H50.135C50.5883 28.2133 51.0817 27.76 51.615 26.96C52.175 26.1333 52.455 25.1733 52.455 24.08C52.455 22.9867 52.215 22.0267 51.735 21.2C51.2817 20.3733 50.8283 19.9067 50.375 19.8H46.695ZM72.8244 43L71.9844 38.56H65.6644L64.8244 43H59.3844L64.7844 15H73.0644L78.1844 43H72.8244ZM68.7444 20.2L67.1844 29.52L66.3044 34.28H71.3044L70.3844 29.52L68.8244 20.2H68.7444ZM93.4031 43H84.9231C83.0031 41.24 81.6031 39.1467 80.7231 36.72C79.8431 34.2933 79.4031 31.76 79.4031 29.12C79.4031 26.4533 79.9365 23.8267 81.0031 21.24C82.0698 18.6533 83.5631 16.5733 85.4831 15H95.2031V19.8H87.7631C87.0698 20.6 86.4698 21.8667 85.9631 23.6C85.4565 25.3067 85.2031 27.1333 85.2031 29.08C85.2031 31 85.4298 32.84 85.8831 34.6C86.3631 36.3333 86.9498 37.5867 87.6431 38.36H91.4831V27.48H96.7631V34.2C96.7631 37.88 95.6431 40.8133 93.4031 43ZM99.8888 43V15H114.249V19.8H105.369V26.48H113.289V31.12H105.369V38.36H114.409V43H99.8888Z" fill="white"/>
<path d="M18.684 50.66V59H17.316V53.288L14.772 59H13.824L11.268 53.288V59H9.9V50.66H11.376L14.304 57.2L17.22 50.66H18.684ZM20.026 55.664C20.026 55 20.162 54.412 20.434 53.9C20.714 53.388 21.09 52.992 21.562 52.712C22.042 52.424 22.57 52.28 23.146 52.28C23.666 52.28 24.118 52.384 24.502 52.592C24.894 52.792 25.206 53.044 25.438 53.348V52.388H26.818V59H25.438V58.016C25.206 58.328 24.89 58.588 24.49 58.796C24.09 59.004 23.634 59.108 23.122 59.108C22.554 59.108 22.034 58.964 21.562 58.676C21.09 58.38 20.714 57.972 20.434 57.452C20.162 56.924 20.026 56.328 20.026 55.664ZM25.438 55.688C25.438 55.232 25.342 54.836 25.15 54.5C24.966 54.164 24.722 53.908 24.418 53.732C24.114 53.556 23.786 53.468 23.434 53.468C23.082 53.468 22.754 53.556 22.45 53.732C22.146 53.9 21.898 54.152 21.706 54.488C21.522 54.816 21.43 55.208 21.43 55.664C21.43 56.12 21.522 56.52 21.706 56.864C21.898 57.208 22.146 57.472 22.45 57.656C22.762 57.832 23.09 57.92 23.434 57.92C23.786 57.92 24.114 57.832 24.418 57.656C24.722 57.48 24.966 57.224 25.15 56.888C25.342 56.544 25.438 56.144 25.438 55.688ZM31.9508 52.28C32.4708 52.28 32.9348 52.388 33.3428 52.604C33.7588 52.82 34.0828 53.14 34.3148 53.564C34.5468 53.988 34.6628 54.5 34.6628 55.1V59H33.3068V55.304C33.3068 54.712 33.1588 54.26 32.8628 53.948C32.5668 53.628 32.1628 53.468 31.6508 53.468C31.1388 53.468 30.7308 53.628 30.4268 53.948C30.1308 54.26 29.9828 54.712 29.9828 55.304V59H28.6148V52.388H29.9828V53.144C30.2068 52.872 30.4908 52.66 30.8348 52.508C31.1868 52.356 31.5588 52.28 31.9508 52.28ZM35.9518 55.664C35.9518 55 36.0878 54.412 36.3598 53.9C36.6398 53.388 37.0158 52.992 37.4878 52.712C37.9678 52.424 38.4958 52.28 39.0718 52.28C39.5918 52.28 40.0438 52.384 40.4278 52.592C40.8198 52.792 41.1318 53.044 41.3638 53.348V52.388H42.7438V59H41.3638V58.016C41.1318 58.328 40.8158 58.588 40.4158 58.796C40.0158 59.004 39.5598 59.108 39.0478 59.108C38.4798 59.108 37.9598 58.964 37.4878 58.676C37.0158 58.38 36.6398 57.972 36.3598 57.452C36.0878 56.924 35.9518 56.328 35.9518 55.664ZM41.3638 55.688C41.3638 55.232 41.2678 54.836 41.0758 54.5C40.8918 54.164 40.6478 53.908 40.3438 53.732C40.0398 53.556 39.7118 53.468 39.3598 53.468C39.0078 53.468 38.6798 53.556 38.3758 53.732C38.0718 53.9 37.8238 54.152 37.6318 54.488C37.4478 54.816 37.3558 55.208 37.3558 55.664C37.3558 56.12 37.4478 56.52 37.6318 56.864C37.8238 57.208 38.0718 57.472 38.3758 57.656C38.6878 57.832 39.0158 57.92 39.3598 57.92C39.7118 57.92 40.0398 57.832 40.3438 57.656C40.6478 57.48 40.8918 57.224 41.0758 56.888C41.2678 56.544 41.3638 56.144 41.3638 55.688ZM47.2046 52.28C47.7166 52.28 48.1686 52.384 48.5606 52.592C48.9606 52.792 49.2726 53.044 49.4966 53.348V52.388H50.8766V59.108C50.8766 59.716 50.7486 60.256 50.4926 60.728C50.2366 61.208 49.8646 61.584 49.3766 61.856C48.8966 62.128 48.3206 62.264 47.6486 62.264C46.7526 62.264 46.0086 62.052 45.4166 61.628C44.8246 61.212 44.4886 60.644 44.4086 59.924H45.7646C45.8686 60.268 46.0886 60.544 46.4246 60.752C46.7686 60.968 47.1766 61.076 47.6486 61.076C48.2006 61.076 48.6446 60.908 48.9806 60.572C49.3246 60.236 49.4966 59.748 49.4966 59.108V58.004C49.2646 58.316 48.9486 58.58 48.5486 58.796C48.1566 59.004 47.7086 59.108 47.2046 59.108C46.6286 59.108 46.1006 58.964 45.6206 58.676C45.1486 58.38 44.7726 57.972 44.4926 57.452C44.2206 56.924 44.0846 56.328 44.0846 55.664C44.0846 55 44.2206 54.412 44.4926 53.9C44.7726 53.388 45.1486 52.992 45.6206 52.712C46.1006 52.424 46.6286 52.28 47.2046 52.28ZM49.4966 55.688C49.4966 55.232 49.4006 54.836 49.2086 54.5C49.0246 54.164 48.7806 53.908 48.4766 53.732C48.1726 53.556 47.8446 53.468 47.4926 53.468C47.1406 53.468 46.8126 53.556 46.5086 53.732C46.2046 53.9 45.9566 54.152 45.7646 54.488C45.5806 54.816 45.4886 55.208 45.4886 55.664C45.4886 56.12 45.5806 56.52 45.7646 56.864C45.9566 57.208 46.2046 57.472 46.5086 57.656C46.8206 57.832 47.1486 57.92 47.4926 57.92C47.8446 57.92 48.1726 57.832 48.4766 57.656C48.7806 57.48 49.0246 57.224 49.2086 56.888C49.4006 56.544 49.4966 56.144 49.4966 55.688ZM58.7334 55.532C58.7334 55.78 58.7174 56.004 58.6854 56.204H53.6334C53.6734 56.732 53.8694 57.156 54.2214 57.476C54.5734 57.796 55.0054 57.956 55.5174 57.956C56.2534 57.956 56.7734 57.648 57.0774 57.032H58.5534C58.3534 57.64 57.9894 58.14 57.4614 58.532C56.9414 58.916 56.2934 59.108 55.5174 59.108C54.8854 59.108 54.3174 58.968 53.8134 58.688C53.3174 58.4 52.9254 58 52.6374 57.488C52.3574 56.968 52.2174 56.368 52.2174 55.688C52.2174 55.008 52.3534 54.412 52.6254 53.9C52.9054 53.38 53.2934 52.98 53.7894 52.7C54.2934 52.42 54.8694 52.28 55.5174 52.28C56.1414 52.28 56.6974 52.416 57.1854 52.688C57.6734 52.96 58.0534 53.344 58.3254 53.84C58.5974 54.328 58.7334 54.892 58.7334 55.532ZM57.3054 55.1C57.2974 54.596 57.1174 54.192 56.7654 53.888C56.4134 53.584 55.9774 53.432 55.4574 53.432C54.9854 53.432 54.5814 53.584 54.2454 53.888C53.9094 54.184 53.7094 54.588 53.6454 55.1H57.3054ZM61.4477 53.348C61.6477 53.012 61.9117 52.752 62.2397 52.568C62.5757 52.376 62.9717 52.28 63.4277 52.28V53.696H63.0797C62.5437 53.696 62.1357 53.832 61.8557 54.104C61.5837 54.376 61.4477 54.848 61.4477 55.52V59H60.0797V52.388H61.4477V53.348Z" fill="white"/>
</svg>
